<svg width="14" height="13" viewBox="0 0 14 13" fill="none" xmlns="http://www.w3.org/2000/svg">
<path fill-rule="evenodd" clip-rule="evenodd" d="M12.3848 12.9949C12.7843 12.9949 13.1082 12.6737 13.1082 12.2777V0.717191C13.1082 0.321008 12.7843 0 12.3848 0H0.723452C0.32381 0 0 0.321056 0 0.717191V12.2776C0 12.6737 0.32381 12.9948 0.723452 12.9948H12.3848V12.9949ZM9.04448 12.9949V7.96257H10.7483L11.0034 6.00138H9.04443V4.74924C9.04443 4.18142 9.20346 3.79449 10.0248 3.79449L11.0724 3.794V2.03993C10.8912 2.01607 10.2693 1.96266 9.54593 1.96266C8.03553 1.96266 7.00148 2.8766 7.00148 4.55506V6.00138H5.29323V7.96257H7.00148V12.9948H9.04448V12.9949Z" fill="#8B8B8B"/>
</svg>
