<svg width="14" height="13" viewBox="0 0 14 13" fill="none" xmlns="http://www.w3.org/2000/svg">
<path d="M5.0634 6.5C5.0634 5.30343 6.04165 4.33316 7.24872 4.33316C8.45579 4.33316 9.43456 5.30343 9.43456 6.5C9.43456 7.69657 8.45579 8.66684 7.24872 8.66684C6.04165 8.66684 5.0634 7.69657 5.0634 6.5ZM3.88177 6.5C3.88177 8.3434 5.38915 9.83767 7.24872 9.83767C9.10829 9.83767 10.6157 8.3434 10.6157 6.5C10.6157 4.6566 9.10829 3.16233 7.24872 3.16233C5.38915 3.16233 3.88177 4.6566 3.88177 6.5ZM9.96212 3.02999C9.96194 3.46077 10.3141 3.81013 10.7486 3.8103C11.1832 3.81047 11.5356 3.46139 11.5358 3.03061C11.536 2.59983 11.1838 2.25047 10.7493 2.2503H10.749C10.3146 2.2505 9.96249 2.59941 9.96212 3.02999ZM4.59969 11.7908C3.96041 11.762 3.61294 11.6564 3.38203 11.5672C3.07589 11.4491 2.85747 11.3084 2.62781 11.081C2.39816 10.8537 2.256 10.6374 2.13735 10.3339C2.04733 10.1051 1.94085 9.76056 1.91179 9.12683C1.88 8.44168 1.87365 8.23586 1.87365 6.50005C1.87365 4.76424 1.88052 4.559 1.91179 3.87327C1.9409 3.23955 2.04817 2.89567 2.13735 2.6662C2.25653 2.36272 2.39847 2.1462 2.62781 1.91854C2.85715 1.69088 3.07537 1.54996 3.38203 1.43234C3.61283 1.34311 3.96041 1.23755 4.59969 1.20874C5.29085 1.17723 5.49847 1.17094 7.24872 1.17094C8.99897 1.17094 9.2068 1.17775 9.89854 1.20874C10.5378 1.2376 10.8847 1.34394 11.1162 1.43234C11.4223 1.54996 11.6408 1.6912 11.8704 1.91854C12.1001 2.14588 12.2417 2.36272 12.3609 2.6662C12.4509 2.895 12.5574 3.23955 12.5864 3.87327C12.6182 4.559 12.6246 4.76424 12.6246 6.50005C12.6246 8.23586 12.6182 8.44111 12.5864 9.12683C12.5573 9.76056 12.4503 10.105 12.3609 10.3339C12.2417 10.6374 12.0998 10.8539 11.8704 11.081C11.6411 11.3082 11.4223 11.4491 11.1162 11.5672C10.8854 11.6565 10.5378 11.762 9.89854 11.7908C9.20738 11.8224 8.99976 11.8286 7.24872 11.8286C5.49768 11.8286 5.29064 11.8224 4.59969 11.7908ZM4.5454 0.039364C3.84736 0.070876 3.37038 0.180596 2.95383 0.341276C2.52243 0.507208 2.15723 0.72982 1.79229 1.09101C1.42736 1.4522 1.20337 1.8148 1.03598 2.24245C0.873891 2.65564 0.763209 3.12822 0.731421 3.82018C0.699108 4.51324 0.691711 4.73481 0.691711 6.5C0.691711 8.26519 0.699108 8.48676 0.731421 9.17982C0.763209 9.87184 0.873891 10.3444 1.03598 10.7576C1.20337 11.1849 1.42741 11.548 1.79229 11.909C2.15718 12.27 2.52243 12.4923 2.95383 12.6587C3.37117 12.8194 3.84736 12.9291 4.5454 12.9606C5.2449 12.9921 5.46805 13 7.24872 13C9.02939 13 9.25291 12.9927 9.95204 12.9606C10.6501 12.9291 11.1268 12.8194 11.5436 12.6587C11.9748 12.4923 12.3402 12.2702 12.7051 11.909C13.0701 11.5478 13.2936 11.1849 13.4615 10.7576C13.6235 10.3444 13.7348 9.87178 13.766 9.17982C13.7978 8.48624 13.8052 8.26519 13.8052 6.5C13.8052 4.73481 13.7978 4.51324 13.766 3.82018C13.7342 3.12816 13.6235 2.65538 13.4615 2.24245C13.2936 1.81506 13.0695 1.45278 12.7051 1.09101C12.3408 0.729248 11.9748 0.507208 11.5441 0.341276C11.1268 0.180596 10.6501 0.070356 9.95257 0.039364C9.25343 0.007852 9.02992 0 7.24925 0C5.46857 0 5.2449 0.007332 4.5454 0.039364Z" fill="#8B8B8B"/>
</svg>
