<svg width="13" height="13" viewBox="0 0 13 13" fill="none" xmlns="http://www.w3.org/2000/svg">
<path fill-rule="evenodd" clip-rule="evenodd" d="M1.91457 0C1.54707 0 1.19462 0.152182 0.934755 0.423068C0.67489 0.693954 0.5289 1.06135 0.5289 1.44444V11.5556C0.5289 11.9386 0.67489 12.306 0.934755 12.5769C1.19462 12.8478 1.54707 13 1.91457 13H11.6143C11.9818 13 12.3342 12.8478 12.5941 12.5769C12.854 12.306 13 11.9386 13 11.5556V1.44444C13 1.06135 12.854 0.693954 12.5941 0.423068C12.3342 0.152182 11.9818 0 11.6143 0H1.91457ZM8.55472 2.16667H7.13302L7.14619 8.03689C7.14642 8.30016 7.06686 8.55678 6.91888 8.77012C6.77089 8.98346 6.56204 9.14263 6.32213 9.2249C6.08222 9.30716 5.82351 9.30833 5.58292 9.22824C5.34233 9.14814 5.13217 8.99087 4.98241 8.77888C4.83266 8.56688 4.75097 8.31099 4.74901 8.04773C4.74704 7.78447 4.82491 7.52729 4.97148 7.31289C5.11806 7.09849 5.32586 6.93784 5.56522 6.85385C5.80458 6.76987 6.06328 6.76685 6.30439 6.84522V5.34011H5.93511C5.41379 5.33997 4.90413 5.50099 4.47061 5.80282C4.03709 6.10465 3.69918 6.53371 3.49961 7.03575C3.30005 7.53779 3.2478 8.09025 3.34947 8.62325C3.45114 9.15624 3.70217 9.64584 4.0708 10.0301C4.43943 10.4144 4.9091 10.676 5.42041 10.782C5.93173 10.888 6.4617 10.8335 6.94332 10.6255C7.42493 10.4175 7.83654 10.0652 8.12609 9.61333C8.41563 9.16142 8.5701 8.63015 8.56997 8.08672L8.55472 5.04833C9.43324 5.74744 10.5293 5.67594 10.5293 5.67594V4.20333C8.47574 4.07044 8.55472 2.16667 8.55472 2.16667Z" fill="#8B8B8B"/>
</svg>
