<svg width="17" height="13" viewBox="0 0 17 13" fill="none" xmlns="http://www.w3.org/2000/svg">
<path d="M16.968 1.53801C16.3745 1.7991 15.737 1.9756 15.0668 2.05493C15.7508 1.64886 16.2749 1.00538 16.5223 0.239527C15.8725 0.622125 15.1614 0.891474 14.4198 1.03587C13.8163 0.398152 12.9557 0 12.0036 0C10.176 0 8.69389 1.46871 8.69389 3.28149C8.69389 3.53834 8.72307 3.78892 8.77917 4.02951C6.02806 3.89244 3.58902 2.58604 1.95645 0.600955C1.67138 1.08577 1.50821 1.64945 1.50821 2.25087C1.50821 3.3892 2.09266 4.39356 2.98073 4.9819C2.45501 4.96575 1.94082 4.82507 1.48116 4.57163V4.6131C1.48116 6.20317 2.622 7.52901 4.13639 7.83055C3.8582 7.90611 3.56625 7.94559 3.26422 7.94559C3.05067 7.94559 2.84349 7.92555 2.6411 7.88781C3.06234 9.19108 4.28482 10.1397 5.73291 10.1666C4.60002 11.0469 3.17253 11.5717 1.62212 11.5717C1.35508 11.5717 1.09115 11.5559 0.832062 11.525C2.29719 12.4563 4.0368 13 5.9062 13C11.9945 13 15.3243 7.99972 15.3243 3.66342C15.3243 3.52106 15.3211 3.37976 15.3142 3.23897C15.963 2.77379 16.523 2.19781 16.968 1.53801Z" fill="#8B8B8B"/>
</svg>
