<svg width="14" height="13" viewBox="0 0 14 13" fill="none" xmlns="http://www.w3.org/2000/svg">
<path d="M5.06346 6.5C5.06346 5.30343 6.04172 4.33316 7.24878 4.33316C8.45585 4.33316 9.43463 5.30343 9.43463 6.5C9.43463 7.69657 8.45585 8.66684 7.24878 8.66684C6.04172 8.66684 5.06346 7.69657 5.06346 6.5ZM3.88184 6.5C3.88184 8.3434 5.38921 9.83767 7.24878 9.83767C9.10835 9.83767 10.6157 8.3434 10.6157 6.5C10.6157 4.6566 9.10835 3.16233 7.24878 3.16233C5.38921 3.16233 3.88184 4.6566 3.88184 6.5ZM9.96218 3.02999C9.962 3.46077 10.3141 3.81013 10.7487 3.8103C11.1833 3.81047 11.5357 3.46139 11.5359 3.03061C11.536 2.59983 11.1839 2.25047 10.7493 2.2503H10.749C10.3147 2.2505 9.96255 2.59941 9.96218 3.02999ZM4.59975 11.7908C3.96047 11.762 3.613 11.6564 3.38209 11.5672C3.07595 11.4491 2.85753 11.3084 2.62787 11.081C2.39822 10.8537 2.25606 10.6374 2.13741 10.3339C2.04739 10.1051 1.94091 9.76056 1.91185 9.12683C1.88006 8.44168 1.87371 8.23586 1.87371 6.50005C1.87371 4.76424 1.88058 4.559 1.91185 3.87327C1.94096 3.23955 2.04823 2.89567 2.13741 2.6662C2.25659 2.36272 2.39854 2.1462 2.62787 1.91854C2.85721 1.69088 3.07543 1.54996 3.38209 1.43234C3.61289 1.34311 3.96047 1.23755 4.59975 1.20874C5.29091 1.17723 5.49853 1.17094 7.24878 1.17094C8.99903 1.17094 9.20686 1.17775 9.8986 1.20874C10.5379 1.2376 10.8848 1.34394 11.1163 1.43234C11.4224 1.54996 11.6408 1.6912 11.8705 1.91854C12.1001 2.14588 12.2418 2.36272 12.3609 2.6662C12.451 2.895 12.5574 3.23955 12.5865 3.87327C12.6183 4.559 12.6246 4.76424 12.6246 6.50005C12.6246 8.23586 12.6183 8.44111 12.5865 9.12683C12.5574 9.76056 12.4504 10.105 12.3609 10.3339C12.2418 10.6374 12.0998 10.8539 11.8705 11.081C11.6411 11.3082 11.4224 11.4491 11.1163 11.5672C10.8855 11.6565 10.5379 11.762 9.8986 11.7908C9.20744 11.8224 8.99982 11.8286 7.24878 11.8286C5.49775 11.8286 5.2907 11.8224 4.59975 11.7908ZM4.54546 0.039364C3.84742 0.070876 3.37044 0.180596 2.95389 0.341276C2.52249 0.507208 2.15729 0.72982 1.79235 1.09101C1.42742 1.4522 1.20343 1.8148 1.03604 2.24245C0.873952 2.65564 0.76327 3.12822 0.731482 3.82018C0.699169 4.51324 0.691772 4.73481 0.691772 6.5C0.691772 8.26519 0.699169 8.48676 0.731482 9.17982C0.76327 9.87184 0.873952 10.3444 1.03604 10.7576C1.20343 11.1849 1.42747 11.548 1.79235 11.909C2.15724 12.27 2.52249 12.4923 2.95389 12.6587C3.37123 12.8194 3.84742 12.9291 4.54546 12.9606C5.24496 12.9921 5.46811 13 7.24878 13C9.02946 13 9.25297 12.9927 9.9521 12.9606C10.6502 12.9291 11.1269 12.8194 11.5437 12.6587C11.9748 12.4923 12.3403 12.2702 12.7052 11.909C13.0701 11.5478 13.2937 11.1849 13.4615 10.7576C13.6236 10.3444 13.7348 9.87178 13.7661 9.17982C13.7979 8.48624 13.8053 8.26519 13.8053 6.5C13.8053 4.73481 13.7979 4.51324 13.7661 3.82018C13.7343 3.12816 13.6236 2.65538 13.4615 2.24245C13.2937 1.81506 13.0696 1.45278 12.7052 1.09101C12.3408 0.729248 11.9748 0.507208 11.5442 0.341276C11.1269 0.180596 10.6501 0.070356 9.95263 0.039364C9.25349 0.007852 9.02998 0 7.24931 0C5.46863 0 5.24496 0.007332 4.54546 0.039364Z" fill="#8B8B8B"/>
</svg>
