<svg width="23" height="21" viewBox="0 0 23 21" fill="none" xmlns="http://www.w3.org/2000/svg">
<path d="M11.5 0L23 7.88014V13.1178L11.5 21L0 13.1178V7.8802L11.5 0Z" fill="#6E560E"/>
<path fill-rule="evenodd" clip-rule="evenodd" d="M0 7.88014L11.5 0L23 7.88014V13.1178L11.5 21L0 13.1178V7.88014ZM11.5 17.6563L20.5605 11.4462V9.55243L20.56 9.55211L11.5 15.7603L2.43996 9.55211L2.43952 9.55243V11.4462L11.5 17.6563ZM11.5 12.8649L18.4468 8.10474L16.7545 6.94564L11.5 10.5463L6.24547 6.94564L4.55318 8.10474L11.5 12.8649ZM11.5 7.65082L14.6413 5.49827L11.5 3.3467L8.35866 5.49827L11.5 7.65082Z" fill="#E6B31E"/>
<path d="M11.5 0L0 7.8802V13.1178L11.5 21L11.5 0Z" fill="#6E560E" fill-opacity="0.3"/>
</svg>
