<svg width="81" height="39" viewBox="0 0 81 39" fill="none" xmlns="http://www.w3.org/2000/svg">
<path d="M69.5 0L81 7.88014V13.1178L69.5 21L58 13.1178V7.8802L69.5 0Z" fill="#6E560E"/>
<path fill-rule="evenodd" clip-rule="evenodd" d="M58 7.88014L69.5 0L81 7.88014V13.1178L69.5 21L58 13.1178V7.88014ZM69.5 17.6563L78.5605 11.4462V9.55243L78.56 9.55211L69.5 15.7603L60.44 9.55211L60.4395 9.55243V11.4462L69.5 17.6563ZM69.5 12.8649L76.4468 8.10474L74.7545 6.94564L69.5 10.5463L64.2455 6.94564L62.5532 8.10474L69.5 12.8649ZM69.5 7.65082L72.6413 5.49827L69.5 3.3467L66.3587 5.49827L69.5 7.65082Z" fill="#E6B31E"/>
<path d="M69.5 0L58 7.8802V13.1178L69.5 21L69.5 0Z" fill="#6E560E" fill-opacity="0.3"/>
<path d="M2.226 5.578H4.242C5.6 5.578 6.902 5.886 6.902 7.762C6.902 9.638 5.614 9.946 4.242 9.946V9.932H2.226V5.578ZM8.54 14.86C8.26 14.748 8.022 14.538 7.882 14.272C7.882 14.272 6.384 11.514 5.852 10.548C5.796 10.45 5.684 10.254 5.544 10.226C7.196 9.918 7.602 8.896 7.602 7.762C7.602 6.334 6.972 5.186 4.214 5.186H0.7L0.924 5.27C1.246 5.396 1.456 5.704 1.456 6.054V14.104C1.456 14.454 1.246 14.762 0.924 14.888L0.7 14.972H2.982L2.758 14.888C2.436 14.762 2.226 14.454 2.226 14.104V10.338H4.48C4.746 10.338 4.984 10.478 5.11 10.702L7.448 14.972H8.918L8.54 14.86ZM16.3347 5.2L16.5727 5.312C16.8667 5.452 17.0627 5.746 17.0627 6.068V11.724C17.0627 13.138 15.9147 14.594 14.5007 14.594H13.4787C12.4007 14.594 11.0987 13.46 11.0987 11.724V6.068C11.0987 5.718 11.3087 5.41 11.6307 5.284L11.8547 5.2H9.57272L9.79672 5.284C10.1187 5.41 10.3287 5.718 10.3287 6.068V11.724C10.3287 13.53 11.7987 15 13.6047 15H14.1787C15.9847 15 17.4547 13.53 17.4547 11.724V6.068C17.4547 5.746 17.6507 5.452 17.9447 5.312L18.1827 5.2H16.3347ZM29.1705 14.132V6.068C29.1705 5.718 29.3805 5.41 29.7025 5.284L29.9265 5.2H28.3165L24.7605 13.488L21.2045 5.2H19.5805L19.8185 5.312C20.1125 5.452 20.3085 5.746 20.3085 6.068V14.118C20.3085 14.44 20.1125 14.734 19.8185 14.874L19.5805 14.986H21.4285L21.1905 14.874C20.8965 14.734 20.7005 14.44 20.7005 14.118V5.984L24.5645 15L28.4145 6.012V14.118C28.4145 14.468 28.2045 14.776 27.8825 14.902L27.6585 14.986H29.9405L29.7165 14.902C29.3945 14.776 29.1845 14.468 29.1845 14.118L29.1705 14.132ZM37.6807 10.674H34.2367L35.9587 6.698L37.6807 10.674ZM40.9007 15L40.7327 14.944C40.3967 14.818 40.1307 14.552 40.0047 14.216L36.1407 5.2L32.3047 14.16C32.1927 14.468 31.9687 14.72 31.6747 14.86L31.3527 15.014H33.2007L32.8787 14.86C32.6827 14.762 32.5847 14.524 32.6687 14.314L34.0687 11.066H37.8487L39.2487 14.314C39.3327 14.538 39.2207 14.776 38.9967 14.86L38.6187 15H40.9007ZM50.754 14.132V6.082C50.754 5.732 50.964 5.424 51.286 5.298L51.51 5.214H49.228L49.452 5.298C49.774 5.424 49.984 5.732 49.984 6.082V9.708H43.418V6.082C43.418 5.732 43.628 5.424 43.95 5.298L44.174 5.214H41.892L42.116 5.298C42.438 5.424 42.648 5.732 42.648 6.082V14.132C42.648 14.482 42.438 14.79 42.116 14.916L41.892 15H44.174L43.95 14.916C43.628 14.79 43.418 14.482 43.418 14.132V10.1H49.984V14.132C49.984 14.482 49.774 14.79 49.452 14.916L49.228 15H51.51L51.286 14.916C50.964 14.79 50.754 14.482 50.754 14.132Z" fill="#6E560E"/>
<path d="M2.226 5.578V5.078H1.726V5.578H2.226ZM4.242 9.946H3.742V10.446H4.242V9.946ZM4.242 9.932H4.742V9.432H4.242V9.932ZM2.226 9.932H1.726V10.432H2.226V9.932ZM8.54 14.86L8.3543 15.3242L8.37578 15.3328L8.39796 15.3394L8.54 14.86ZM7.882 14.272L8.3245 14.0391L8.32137 14.0334L7.882 14.272ZM5.852 10.548L6.29003 10.3068L6.28612 10.2999L5.852 10.548ZM5.544 10.226L5.45236 9.73447L5.44594 10.7163L5.544 10.226ZM0.7 5.186V4.686L0.524439 5.65416L0.7 5.186ZM0.924 5.27L1.10622 4.80433L1.09956 4.80183L0.924 5.27ZM0.924 14.888L1.09958 15.3562L1.1062 15.3536L0.924 14.888ZM0.7 14.972L0.524438 14.5038L0.7 15.472V14.972ZM2.982 14.972V15.472L3.15756 14.5038L2.982 14.972ZM2.758 14.888L2.57578 15.3537L2.58244 15.3562L2.758 14.888ZM2.226 10.338V9.838H1.726V10.338H2.226ZM5.11 10.702L5.54859 10.4619L5.54579 10.4569L5.11 10.702ZM7.448 14.972L7.00944 15.2121L7.15173 15.472H7.448V14.972ZM8.918 14.972V15.472L9.06004 14.4926L8.918 14.972ZM2.226 6.078H4.242V5.078H2.226V6.078ZM4.242 6.078C4.90526 6.078 5.44681 6.15813 5.81504 6.38974C6.13436 6.59059 6.402 6.95657 6.402 7.762H7.402C7.402 6.69143 7.01864 5.96541 6.34746 5.54326C5.72519 5.15187 4.93674 5.078 4.242 5.078V6.078ZM6.402 7.762C6.402 8.56954 6.13632 8.93478 5.81962 9.13468C5.45373 9.36563 4.91306 9.446 4.242 9.446V10.446C4.94295 10.446 5.73227 10.3724 6.35338 9.98032C7.02368 9.55722 7.402 8.83046 7.402 7.762H6.402ZM4.742 9.946V9.932H3.742V9.946H4.742ZM4.242 9.432H2.226V10.432H4.242V9.432ZM2.726 9.932V5.578H1.726V9.932H2.726ZM8.7257 14.3958C8.55221 14.3264 8.40719 14.1963 8.32446 14.0391L7.43954 14.5049C7.63681 14.8797 7.96779 15.1696 8.3543 15.3242L8.7257 14.3958ZM7.882 14.272C8.32137 14.0334 8.32137 14.0333 8.32136 14.0333C8.32134 14.0333 8.32133 14.0333 8.3213 14.0332C8.32126 14.0331 8.32119 14.033 8.3211 14.0328C8.32092 14.0325 8.32064 14.032 8.32028 14.0313C8.31956 14.03 8.31848 14.028 8.31705 14.0254C8.3142 14.0201 8.30996 14.0123 8.3044 14.0021C8.2933 13.9817 8.27694 13.9516 8.25593 13.9129C8.21392 13.8356 8.15331 13.724 8.07892 13.5872C7.93014 13.3135 7.72622 12.9384 7.50567 12.5332C7.06481 11.7232 6.55669 10.7911 6.28997 10.3068L5.41403 10.7892C5.67931 11.2709 6.18619 12.2008 6.62734 13.0113C6.84778 13.4163 7.05161 13.7912 7.20033 14.0648C7.27469 14.2016 7.33527 14.313 7.37725 14.3903C7.39825 14.429 7.41459 14.459 7.42569 14.4795C7.43124 14.4897 7.43547 14.4975 7.43832 14.5027C7.43975 14.5053 7.44082 14.5073 7.44154 14.5086C7.4419 14.5093 7.44217 14.5098 7.44236 14.5101C7.44245 14.5103 7.44251 14.5104 7.44256 14.5105C7.44258 14.5106 7.4426 14.5106 7.44261 14.5106C7.44262 14.5106 7.44263 14.5106 7.882 14.272ZM6.28612 10.2999C6.25998 10.2542 6.19954 10.1466 6.11788 10.0458C6.04919 9.96113 5.89154 9.7856 5.64206 9.73571L5.44594 10.7163C5.38418 10.7039 5.34811 10.6781 5.33886 10.671C5.32913 10.6635 5.33042 10.6624 5.34112 10.6757C5.35096 10.6878 5.36303 10.7048 5.37706 10.7271C5.39108 10.7493 5.40363 10.7711 5.41788 10.7961L6.28612 10.2999ZM5.63564 10.7175C6.55658 10.5458 7.20031 10.159 7.6008 9.59235C7.99259 9.03806 8.102 8.38074 8.102 7.762H7.102C7.102 8.27726 7.00841 8.69794 6.7842 9.01515C6.56869 9.32005 6.18342 9.59817 5.45236 9.73447L5.63564 10.7175ZM8.102 7.762C8.102 6.98254 7.93026 6.17248 7.28213 5.57178C6.64534 4.98159 5.64661 4.686 4.214 4.686V5.686C5.53939 5.686 6.23466 5.96441 6.60237 6.30521C6.95874 6.63551 7.102 7.11346 7.102 7.762H8.102ZM4.214 4.686H0.7V5.686H4.214V4.686ZM0.524439 5.65416L0.748439 5.73816L1.09956 4.80183L0.875561 4.71783L0.524439 5.65416ZM0.7418 5.73562C0.870568 5.78601 0.956 5.90814 0.956 6.054H1.956C1.956 5.49986 1.62143 5.00599 1.1062 4.80438L0.7418 5.73562ZM0.956 6.054V14.104H1.956V6.054H0.956ZM0.956 14.104C0.956 14.2499 0.870568 14.372 0.7418 14.4224L1.1062 15.3536C1.62143 15.152 1.956 14.6581 1.956 14.104H0.956ZM0.748438 14.4198L0.524438 14.5038L0.875562 15.4402L1.09956 15.3562L0.748438 14.4198ZM0.7 15.472H2.982V14.472H0.7V15.472ZM3.15756 14.5038L2.93356 14.4198L2.58244 15.3562L2.80644 15.4402L3.15756 14.5038ZM2.9402 14.4224C2.81143 14.372 2.726 14.2499 2.726 14.104H1.726C1.726 14.6581 2.06057 15.152 2.5758 15.3536L2.9402 14.4224ZM2.726 14.104V10.338H1.726V14.104H2.726ZM2.226 10.838H4.48V9.838H2.226V10.838ZM4.48 10.838C4.56779 10.838 4.63796 10.8827 4.67421 10.9471L5.54579 10.4569C5.33004 10.0733 4.92421 9.838 4.48 9.838V10.838ZM4.67144 10.9421L7.00944 15.2121L7.88656 14.7319L5.54856 10.4619L4.67144 10.9421ZM7.448 15.472H8.918V14.472H7.448V15.472ZM9.06004 14.4926L8.68204 14.3806L8.39796 15.3394L8.77596 15.4514L9.06004 14.4926ZM16.3347 5.2V4.7L16.1218 5.65241L16.3347 5.2ZM16.5727 5.312L16.7877 4.86056L16.7856 4.85959L16.5727 5.312ZM11.6307 5.284L11.4551 4.81579L11.4485 4.81838L11.6307 5.284ZM11.8547 5.2L12.0303 5.66816L11.8547 4.7V5.2ZM9.57272 5.2V4.7L9.39716 5.66816L9.57272 5.2ZM9.79672 5.284L9.97894 4.81833L9.97228 4.81584L9.79672 5.284ZM17.9447 5.312L17.7318 4.85959L17.7298 4.86057L17.9447 5.312ZM18.1827 5.2L18.3956 5.65241L18.1827 4.7V5.2ZM16.1218 5.65241L16.3598 5.76441L16.7856 4.85959L16.5476 4.74759L16.1218 5.65241ZM16.3578 5.76343C16.4888 5.82584 16.5627 5.95094 16.5627 6.068H17.5627C17.5627 5.54106 17.2446 5.07816 16.7877 4.86057L16.3578 5.76343ZM16.5627 6.068V11.724H17.5627V6.068H16.5627ZM16.5627 11.724C16.5627 12.3014 16.3254 12.9056 15.9324 13.3638C15.5403 13.821 15.0294 14.094 14.5007 14.094V15.094C15.3861 15.094 16.1561 14.639 16.6915 14.0147C17.2261 13.3914 17.5627 12.5606 17.5627 11.724H16.5627ZM14.5007 14.094H13.4787V15.094H14.5007V14.094ZM13.4787 14.094C12.7155 14.094 11.5987 13.2241 11.5987 11.724H10.5987C10.5987 13.6959 12.0859 15.094 13.4787 15.094V14.094ZM11.5987 11.724V6.068H10.5987V11.724H11.5987ZM11.5987 6.068C11.5987 5.92214 11.6842 5.80001 11.8129 5.74962L11.4485 4.81838C10.9333 5.01999 10.5987 5.51386 10.5987 6.068H11.5987ZM11.8063 5.75216L12.0303 5.66816L11.6792 4.73184L11.4552 4.81584L11.8063 5.75216ZM11.8547 4.7H9.57272V5.7H11.8547V4.7ZM9.39716 5.66816L9.62116 5.75216L9.97228 4.81584L9.74828 4.73184L9.39716 5.66816ZM9.61452 5.74962C9.74329 5.80001 9.82872 5.92214 9.82872 6.068H10.8287C10.8287 5.51386 10.4942 5.01999 9.97892 4.81838L9.61452 5.74962ZM9.82872 6.068V11.724H10.8287V6.068H9.82872ZM9.82872 11.724C9.82872 13.8061 11.5226 15.5 13.6047 15.5V14.5C12.0749 14.5 10.8287 13.2539 10.8287 11.724H9.82872ZM13.6047 15.5H14.1787V14.5H13.6047V15.5ZM14.1787 15.5C16.2609 15.5 17.9547 13.8061 17.9547 11.724H16.9547C16.9547 13.2539 15.7086 14.5 14.1787 14.5V15.5ZM17.9547 11.724V6.068H16.9547V11.724H17.9547ZM17.9547 6.068C17.9547 5.95094 18.0286 5.82584 18.1597 5.76343L17.7298 4.86057C17.2728 5.07816 16.9547 5.54106 16.9547 6.068H17.9547ZM18.1576 5.76441L18.3956 5.65241L17.9698 4.74759L17.7318 4.85959L18.1576 5.76441ZM18.1827 4.7H16.3347V5.7H18.1827V4.7ZM29.1705 14.132H28.6705V15.3391L29.5241 14.4856L29.1705 14.132ZM29.7025 5.284L29.527 4.81579L29.5203 4.81838L29.7025 5.284ZM29.9265 5.2L30.1021 5.66816L29.9265 4.7V5.2ZM28.3165 5.2V4.7H27.987L27.857 5.00285L28.3165 5.2ZM24.7605 13.488L24.301 13.6851L24.7605 14.7561L25.22 13.6851L24.7605 13.488ZM21.2045 5.2L21.664 5.00285L21.5341 4.7H21.2045V5.2ZM19.5805 5.2V4.7L19.3676 5.65241L19.5805 5.2ZM19.8185 5.312L20.0335 4.86056L20.0314 4.85959L19.8185 5.312ZM19.8185 14.874L20.0314 15.3264L20.0335 15.3254L19.8185 14.874ZM19.5805 14.986L19.3676 14.5336L19.5805 15.486V14.986ZM21.4285 14.986V15.486L21.6414 14.5336L21.4285 14.986ZM21.1905 14.874L20.9756 15.3254L20.9776 15.3264L21.1905 14.874ZM20.7005 5.984L21.1601 5.78704L20.2005 5.984H20.7005ZM24.5645 15L24.105 15.197L24.5647 16.2696L25.0241 15.1969L24.5645 15ZM28.4145 6.012H28.9145L27.9549 5.81513L28.4145 6.012ZM27.8825 14.902L28.0581 15.3702L28.0647 15.3676L27.8825 14.902ZM27.6585 14.986L27.483 14.5178L27.6585 15.486V14.986ZM29.9405 14.986V15.486L30.1161 14.5178L29.9405 14.986ZM29.7165 14.902L29.5343 15.3677L29.541 15.3702L29.7165 14.902ZM29.1845 14.118H29.6845V12.9109L28.831 13.7644L29.1845 14.118ZM29.6705 14.132V6.068H28.6705V14.132H29.6705ZM29.6705 6.068C29.6705 5.92214 29.756 5.80001 29.8847 5.74962L29.5203 4.81838C29.0051 5.01999 28.6705 5.51386 28.6705 6.068H29.6705ZM29.8781 5.75216L30.1021 5.66816L29.751 4.73184L29.527 4.81584L29.8781 5.75216ZM29.9265 4.7H28.3165V5.7H29.9265V4.7ZM27.857 5.00285L24.301 13.2909L25.22 13.6851L28.776 5.39715L27.857 5.00285ZM25.22 13.2909L21.664 5.00285L20.745 5.39715L24.301 13.6851L25.22 13.2909ZM21.2045 4.7H19.5805V5.7H21.2045V4.7ZM19.3676 5.65241L19.6056 5.76441L20.0314 4.85959L19.7934 4.74759L19.3676 5.65241ZM19.6036 5.76343C19.7346 5.82584 19.8085 5.95094 19.8085 6.068H20.8085C20.8085 5.54106 20.4904 5.07816 20.0335 4.86057L19.6036 5.76343ZM19.8085 6.068V14.118H20.8085V6.068H19.8085ZM19.8085 14.118C19.8085 14.2351 19.7346 14.3602 19.6036 14.4226L20.0335 15.3254C20.4904 15.1078 20.8085 14.6449 20.8085 14.118H19.8085ZM19.6056 14.4216L19.3676 14.5336L19.7934 15.4384L20.0314 15.3264L19.6056 14.4216ZM19.5805 15.486H21.4285V14.486H19.5805V15.486ZM21.6414 14.5336L21.4034 14.4216L20.9776 15.3264L21.2156 15.4384L21.6414 14.5336ZM21.4055 14.4226C21.2744 14.3602 21.2005 14.2351 21.2005 14.118H20.2005C20.2005 14.6449 20.5186 15.1078 20.9756 15.3254L21.4055 14.4226ZM21.2005 14.118V5.984H20.2005V14.118H21.2005ZM20.241 6.18096L24.105 15.197L25.0241 14.803L21.1601 5.78704L20.241 6.18096ZM25.0241 15.1969L28.8741 6.20887L27.9549 5.81513L24.1049 14.8031L25.0241 15.1969ZM27.9145 6.012V14.118H28.9145V6.012H27.9145ZM27.9145 14.118C27.9145 14.2639 27.8291 14.386 27.7003 14.4364L28.0647 15.3676C28.58 15.166 28.9145 14.6721 28.9145 14.118H27.9145ZM27.707 14.4338L27.483 14.5178L27.8341 15.4542L28.0581 15.3702L27.707 14.4338ZM27.6585 15.486H29.9405V14.486H27.6585V15.486ZM30.1161 14.5178L29.8921 14.4338L29.541 15.3702L29.765 15.4542L30.1161 14.5178ZM29.8987 14.4364C29.77 14.386 29.6845 14.2639 29.6845 14.118H28.6845C28.6845 14.6721 29.0191 15.166 29.5343 15.3676L29.8987 14.4364ZM28.831 13.7644L28.817 13.7784L29.5241 14.4856L29.5381 14.4716L28.831 13.7644ZM37.6807 10.674V11.174H38.4421L38.1395 10.4753L37.6807 10.674ZM34.2367 10.674L33.7779 10.4753L33.4752 11.174H34.2367V10.674ZM35.9587 6.698L36.4175 6.49929L35.9587 5.4399L35.4999 6.49929L35.9587 6.698ZM40.9007 15V15.5L41.0588 14.5257L40.9007 15ZM40.7327 14.944L40.5571 15.4122L40.5658 15.4154L40.5746 15.4183L40.7327 14.944ZM40.0047 14.216L40.4728 14.0404L40.4688 14.0296L40.4642 14.019L40.0047 14.216ZM36.1407 5.2L36.6002 5.00304L36.1404 3.93014L35.681 5.00321L36.1407 5.2ZM32.3047 14.16L31.845 13.9632L31.8395 13.976L31.8348 13.9891L32.3047 14.16ZM31.6747 14.86L31.4597 14.4086L31.4589 14.4089L31.6747 14.86ZM31.3527 15.014L31.1369 14.5629L31.3527 15.514V15.014ZM33.2007 15.014V15.514L33.4164 14.5629L33.2007 15.014ZM32.8787 14.86L32.655 15.3073L32.6629 15.3111L32.8787 14.86ZM32.6687 14.314L32.2094 14.116L32.2044 14.1283L32.6687 14.314ZM34.0687 11.066V10.566H33.7397L33.6095 10.8681L34.0687 11.066ZM37.8487 11.066L38.3078 10.8681L38.1776 10.566H37.8487V11.066ZM39.2487 14.314L39.7168 14.1384L39.7126 14.1272L39.7078 14.1161L39.2487 14.314ZM38.9967 14.86L39.1703 15.3289L39.1722 15.3282L38.9967 14.86ZM38.6187 15L38.445 14.5311L38.6187 15.5V15ZM37.6807 10.174H34.2367V11.174H37.6807V10.174ZM34.6955 10.8727L36.4175 6.89671L35.4999 6.49929L33.7779 10.4753L34.6955 10.8727ZM35.4999 6.89671L37.2219 10.8727L38.1395 10.4753L36.4175 6.49929L35.4999 6.89671ZM41.0588 14.5257L40.8908 14.4697L40.5746 15.4183L40.7426 15.4743L41.0588 14.5257ZM40.9082 14.4758C40.7074 14.4005 40.5481 14.2412 40.4728 14.0404L39.5365 14.3916C39.7132 14.8628 40.0859 15.2355 40.5571 15.4122L40.9082 14.4758ZM40.4642 14.019L36.6002 5.00304L35.6811 5.39696L39.5451 14.413L40.4642 14.019ZM35.681 5.00321L31.845 13.9632L32.7643 14.3568L36.6003 5.39679L35.681 5.00321ZM31.8348 13.9891C31.766 14.1781 31.6311 14.327 31.4597 14.4086L31.8896 15.3114C32.3063 15.113 32.6193 14.7579 32.7746 14.3309L31.8348 13.9891ZM31.4589 14.4089L31.1369 14.5629L31.5684 15.4651L31.8904 15.3111L31.4589 14.4089ZM31.3527 15.514H33.2007V14.514H31.3527V15.514ZM33.4164 14.5629L33.0944 14.4089L32.6629 15.3111L32.9849 15.4651L33.4164 14.5629ZM33.1023 14.4128C33.1198 14.4215 33.1295 14.4345 33.134 14.4462C33.1391 14.459 33.1412 14.4791 33.1329 14.4997L32.2044 14.1283C32.0202 14.589 32.2355 15.0974 32.6551 15.3072L33.1023 14.4128ZM33.1278 14.5119L34.5278 11.2639L33.6095 10.8681L32.2095 14.1161L33.1278 14.5119ZM34.0687 11.566H37.8487V10.566H34.0687V11.566ZM37.3895 11.2639L38.7895 14.5119L39.7078 14.1161L38.3078 10.8681L37.3895 11.2639ZM38.7805 14.4896C38.775 14.4749 38.7743 14.4514 38.7847 14.4289C38.7948 14.4072 38.811 14.3956 38.8211 14.3918L39.1722 15.3282C39.6477 15.1499 39.9005 14.6281 39.7168 14.1384L38.7805 14.4896ZM38.823 14.3911L38.445 14.5311L38.7923 15.4689L39.1703 15.3289L38.823 14.3911ZM38.6187 15.5H40.9007V14.5H38.6187V15.5ZM51.286 5.298L51.1105 4.82979L51.1038 4.83238L51.286 5.298ZM51.51 5.214L51.6856 5.68216L51.51 4.714V5.214ZM49.228 5.214V4.714L49.0525 5.68216L49.228 5.214ZM49.452 5.298L49.6343 4.83233L49.6276 4.82984L49.452 5.298ZM49.984 9.708V10.208H50.484V9.708H49.984ZM43.418 9.708H42.918V10.208H43.418V9.708ZM43.95 5.298L43.7745 4.82979L43.7678 4.83238L43.95 5.298ZM44.174 5.214L44.3496 5.68216L44.174 4.714V5.214ZM41.892 5.214V4.714L41.7165 5.68216L41.892 5.214ZM42.116 5.298L42.2983 4.83233L42.2916 4.82984L42.116 5.298ZM42.116 14.916L42.2916 15.3842L42.2982 15.3816L42.116 14.916ZM41.892 15L41.7165 14.5318L41.892 15.5V15ZM44.174 15V15.5L44.3496 14.5318L44.174 15ZM43.95 14.916L43.7678 15.3817L43.7745 15.3842L43.95 14.916ZM43.418 10.1V9.6H42.918V10.1H43.418ZM49.984 10.1H50.484V9.6H49.984V10.1ZM49.452 14.916L49.6276 15.3842L49.6342 15.3816L49.452 14.916ZM49.228 15L49.0525 14.5318L49.228 15.5V15ZM51.51 15V15.5L51.6856 14.5318L51.51 15ZM51.286 14.916L51.1038 15.3817L51.1105 15.3842L51.286 14.916ZM51.254 14.132V6.082H50.254V14.132H51.254ZM51.254 6.082C51.254 5.93614 51.3395 5.81401 51.4682 5.76362L51.1038 4.83238C50.5886 5.03399 50.254 5.52786 50.254 6.082H51.254ZM51.4616 5.76616L51.6856 5.68216L51.3345 4.74583L51.1105 4.82984L51.4616 5.76616ZM51.51 4.714H49.228V5.714H51.51V4.714ZM49.0525 5.68216L49.2765 5.76616L49.6276 4.82984L49.4036 4.74584L49.0525 5.68216ZM49.2698 5.76362C49.3986 5.81401 49.484 5.93614 49.484 6.082H50.484C50.484 5.52786 50.1495 5.03399 49.6342 4.83238L49.2698 5.76362ZM49.484 6.082V9.708H50.484V6.082H49.484ZM49.984 9.208H43.418V10.208H49.984V9.208ZM43.918 9.708V6.082H42.918V9.708H43.918ZM43.918 6.082C43.918 5.93614 44.0035 5.81401 44.1322 5.76362L43.7678 4.83238C43.2526 5.03399 42.918 5.52785 42.918 6.082H43.918ZM44.1256 5.76616L44.3496 5.68216L43.9985 4.74583L43.7745 4.82984L44.1256 5.76616ZM44.174 4.714H41.892V5.714H44.174V4.714ZM41.7165 5.68216L41.9405 5.76616L42.2916 4.82984L42.0676 4.74583L41.7165 5.68216ZM41.9338 5.76362C42.0626 5.81401 42.148 5.93614 42.148 6.082H43.148C43.148 5.52785 42.8135 5.03399 42.2982 4.83238L41.9338 5.76362ZM42.148 6.082V14.132H43.148V6.082H42.148ZM42.148 14.132C42.148 14.2779 42.0626 14.4 41.9338 14.4504L42.2982 15.3816C42.8135 15.18 43.148 14.6861 43.148 14.132H42.148ZM41.9405 14.4478L41.7165 14.5318L42.0676 15.4682L42.2916 15.3842L41.9405 14.4478ZM41.892 15.5H44.174V14.5H41.892V15.5ZM44.3496 14.5318L44.1256 14.4478L43.7745 15.3842L43.9985 15.4682L44.3496 14.5318ZM44.1322 14.4504C44.0035 14.4 43.918 14.2779 43.918 14.132H42.918C42.918 14.6861 43.2526 15.18 43.7678 15.3816L44.1322 14.4504ZM43.918 14.132V10.1H42.918V14.132H43.918ZM43.418 10.6H49.984V9.6H43.418V10.6ZM49.484 10.1V14.132H50.484V10.1H49.484ZM49.484 14.132C49.484 14.2779 49.3986 14.4 49.2698 14.4504L49.6342 15.3816C50.1495 15.18 50.484 14.6861 50.484 14.132H49.484ZM49.2765 14.4478L49.0525 14.5318L49.4036 15.4682L49.6276 15.3842L49.2765 14.4478ZM49.228 15.5H51.51V14.5H49.228V15.5ZM51.6856 14.5318L51.4616 14.4478L51.1105 15.3842L51.3345 15.4682L51.6856 14.5318ZM51.4682 14.4504C51.3395 14.4 51.254 14.2779 51.254 14.132H50.254C50.254 14.6861 50.5886 15.18 51.1038 15.3816L51.4682 14.4504Z" fill="#6E560E"/>
<path d="M2.826 30.484H6.21C8.46 30.484 9.882 31.294 9.882 33.436C9.882 35.848 7.65 36.496 6.21 36.496V36.478H2.826V30.484ZM5.85 24.886C7.434 24.886 8.802 25.462 8.802 27.568C8.802 29.548 7.398 29.962 5.814 29.962H2.826L2.844 24.886H5.85ZM8.154 30.124C9.144 29.584 9.756 28.72 9.756 27.586C9.756 24.85 7.83 24.4 5.418 24.4H0.9L1.188 24.508C1.602 24.67 1.872 25.066 1.872 25.516V35.866C1.872 36.316 1.602 36.712 1.188 36.874L0.9 36.982H5.922C9 36.982 10.854 35.65 10.854 33.418C10.854 31.78 9.864 30.646 8.154 30.124ZM21.3358 24.4L21.6418 24.544C22.0198 24.724 22.2718 25.102 22.2718 25.516V32.788C22.2718 34.606 20.7958 36.478 18.9778 36.478H17.6638C16.2778 36.478 14.6038 35.02 14.6038 32.788V25.516C14.6038 25.066 14.8738 24.67 15.2878 24.508L15.5758 24.4H12.6418L12.9298 24.508C13.3438 24.67 13.6138 25.066 13.6138 25.516V32.788C13.6138 35.11 15.5038 37 17.8258 37H18.5638C20.8858 37 22.7758 35.11 22.7758 32.788V25.516C22.7758 25.102 23.0278 24.724 23.4058 24.544L23.7118 24.4H21.3358ZM27.453 24.904H30.891C34.491 24.904 36.183 27.262 36.183 30.682C36.183 34.102 34.491 36.46 30.891 36.46V36.478H27.453V24.904ZM25.815 24.508C26.229 24.67 26.499 25.066 26.499 25.516V35.866C26.499 36.316 26.229 36.712 25.815 36.874L25.527 36.982H30.891C35.247 36.982 37.137 34.21 37.137 30.682C37.137 27.064 35.247 24.382 30.891 24.382V24.4H25.527L25.815 24.508ZM45.7395 31.438H41.3115L43.5255 26.326L45.7395 31.438ZM49.8795 37L49.6635 36.928C49.2315 36.766 48.8895 36.424 48.7275 35.992L43.7595 24.4L38.8275 35.92C38.6835 36.316 38.3955 36.64 38.0175 36.82L37.6035 37.018H39.9795L39.5655 36.82C39.3135 36.694 39.1875 36.388 39.2955 36.118L41.0955 31.942H45.9555L47.7555 36.118C47.8635 36.406 47.7195 36.712 47.4315 36.82L46.9455 37H49.8795ZM58.1127 24.4L58.7247 24.688C58.8687 24.76 58.9227 24.94 58.8327 25.084L54.8007 31.186L50.7327 25.03C50.6427 24.886 50.7147 24.688 50.8767 24.634L51.4887 24.4H48.5547L48.7527 24.472C49.1847 24.634 49.5447 24.922 49.7967 25.3L54.0987 31.78V35.884C54.0987 36.334 53.8287 36.73 53.4147 36.892L53.1267 37H56.0607L55.7727 36.892C55.3587 36.73 55.0887 36.334 55.0887 35.884V31.816L59.3907 25.318C59.6067 24.976 59.9127 24.706 60.2727 24.544L60.5607 24.418L58.1127 24.4ZM67.7298 31.438H63.3018L65.5158 26.326L67.7298 31.438ZM71.8698 37L71.6538 36.928C71.2218 36.766 70.8798 36.424 70.7178 35.992L65.7498 24.4L60.8178 35.92C60.6738 36.316 60.3858 36.64 60.0078 36.82L59.5938 37.018H61.9698L61.5558 36.82C61.3038 36.694 61.1778 36.388 61.2858 36.118L63.0858 31.942H67.9458L69.7458 36.118C69.8538 36.406 69.7098 36.712 69.4218 36.82L68.9358 37H71.8698Z" fill="#E6B31E"/>
<path d="M2.826 30.484V29.984H2.326V30.484H2.826ZM6.21 36.496H5.71V36.996H6.21V36.496ZM6.21 36.478H6.71V35.978H6.21V36.478ZM2.826 36.478H2.326V36.978H2.826V36.478ZM2.826 29.962L2.326 29.9602L2.32422 30.462H2.826V29.962ZM2.844 24.886V24.386H2.34577L2.344 24.8842L2.844 24.886ZM8.154 30.124L7.91457 29.6851L6.87 30.2548L8.00802 30.6022L8.154 30.124ZM0.9 24.4V23.9L0.724437 24.8682L0.9 24.4ZM1.188 24.508L1.37022 24.0423L1.36356 24.0398L1.188 24.508ZM1.188 36.874L1.36358 37.3422L1.3702 37.3396L1.188 36.874ZM0.9 36.982L0.724438 36.5138L0.9 37.482V36.982ZM2.826 30.984H6.21V29.984H2.826V30.984ZM6.21 30.984C7.29048 30.984 8.08136 31.1813 8.59272 31.559C9.07478 31.915 9.382 32.4868 9.382 33.436H10.382C10.382 32.2432 9.97822 31.339 9.18679 30.7545C8.42464 30.1917 7.37952 29.984 6.21 29.984V30.984ZM9.382 33.436C9.382 34.4549 8.92567 35.0667 8.32007 35.4471C7.68647 35.845 6.87015 35.996 6.21 35.996V36.996C6.98985 36.996 8.00953 36.823 8.85193 36.2939C9.72233 35.7473 10.382 34.8291 10.382 33.436H9.382ZM6.71 36.496V36.478H5.71V36.496H6.71ZM6.21 35.978H2.826V36.978H6.21V35.978ZM3.326 36.478V30.484H2.326V36.478H3.326ZM5.85 25.386C6.59658 25.386 7.20533 25.5245 7.61894 25.8364C8.00523 26.1278 8.302 26.6325 8.302 27.568H9.302C9.302 26.3975 8.91477 25.5612 8.22106 25.038C7.55467 24.5355 6.68742 24.386 5.85 24.386V25.386ZM8.302 27.568C8.302 28.4214 8.0115 28.844 7.63267 29.0862C7.20862 29.3574 6.58267 29.462 5.814 29.462V30.462C6.62933 30.462 7.49738 30.3596 8.17133 29.9288C8.8905 29.469 9.302 28.6946 9.302 27.568H8.302ZM5.814 29.462H2.826V30.462H5.814V29.462ZM3.326 29.9638L3.344 24.8878L2.344 24.8842L2.326 29.9602L3.326 29.9638ZM2.844 25.386H5.85V24.386H2.844V25.386ZM8.39343 30.5629C9.51504 29.9512 10.256 28.9338 10.256 27.586H9.256C9.256 28.5062 8.77296 29.2168 7.91457 29.6851L8.39343 30.5629ZM10.256 27.586C10.256 26.8447 10.1256 26.2209 9.86258 25.7064C9.59697 25.1868 9.20988 24.8059 8.74251 24.5346C7.83437 24.0074 6.6295 23.9 5.418 23.9V24.9C6.6185 24.9 7.58263 25.0176 8.24049 25.3994C8.55613 25.5826 8.80128 25.8272 8.97217 26.1615C9.14563 26.5008 9.256 26.9593 9.256 27.586H10.256ZM5.418 23.9H0.9V24.9H5.418V23.9ZM0.724437 24.8682L1.01244 24.9762L1.36356 24.0398L1.07556 23.9318L0.724437 24.8682ZM1.0058 24.9736C1.22657 25.06 1.372 25.2701 1.372 25.516H2.372C2.372 24.8619 1.97743 24.28 1.3702 24.0424L1.0058 24.9736ZM1.372 25.516V35.866H2.372V25.516H1.372ZM1.372 35.866C1.372 36.1119 1.22657 36.322 1.0058 36.4084L1.3702 37.3396C1.97743 37.102 2.372 36.5201 2.372 35.866H1.372ZM1.01244 36.4058L0.724438 36.5138L1.07556 37.4502L1.36356 37.3422L1.01244 36.4058ZM0.9 37.482H5.922V36.482H0.9V37.482ZM5.922 37.482C7.52422 37.482 8.8728 37.1366 9.8348 36.4425C10.8161 35.7345 11.354 34.6911 11.354 33.418H10.354C10.354 34.3769 9.96487 35.1155 9.2497 35.6315C8.5152 36.1614 7.39778 36.482 5.922 36.482V37.482ZM11.354 33.418C11.354 32.4919 11.0716 31.6831 10.5294 31.0324C9.99152 30.387 9.22411 29.9279 8.29998 29.6458L8.00802 30.6022C8.79389 30.8421 9.37648 31.211 9.76114 31.6726C10.1414 32.1289 10.354 32.7061 10.354 33.418H11.354ZM21.3358 24.4V23.9L21.1229 24.8524L21.3358 24.4ZM21.6418 24.544L21.8567 24.0926L21.8547 24.0916L21.6418 24.544ZM15.2878 24.508L15.1122 24.0398L15.1056 24.0424L15.2878 24.508ZM15.5758 24.4L15.7513 24.8682L15.5758 23.9V24.4ZM12.6418 24.4V23.9L12.4662 24.8682L12.6418 24.4ZM12.9298 24.508L13.112 24.0423L13.1053 24.0398L12.9298 24.508ZM23.4058 24.544L23.1929 24.0916L23.1908 24.0926L23.4058 24.544ZM23.7118 24.4L23.9247 24.8524L23.7118 23.9V24.4ZM21.1229 24.8524L21.4289 24.9964L21.8547 24.0916L21.5487 23.9476L21.1229 24.8524ZM21.4268 24.9954C21.6419 25.0978 21.7718 25.3069 21.7718 25.516H22.7718C22.7718 24.8971 22.3977 24.3502 21.8567 24.0926L21.4268 24.9954ZM21.7718 25.516V32.788H22.7718V25.516H21.7718ZM21.7718 32.788C21.7718 33.5674 21.4524 34.3766 20.927 34.9893C20.4023 35.601 19.7084 35.978 18.9778 35.978V36.978C20.0651 36.978 21.0182 36.419 21.6861 35.6402C22.3531 34.8624 22.7718 33.8266 22.7718 32.788H21.7718ZM18.9778 35.978H17.6638V36.978H18.9778V35.978ZM17.6638 35.978C16.5925 35.978 15.1038 34.7841 15.1038 32.788H14.1038C14.1038 35.2559 15.963 36.978 17.6638 36.978V35.978ZM15.1038 32.788V25.516H14.1038V32.788H15.1038ZM15.1038 25.516C15.1038 25.2701 15.2492 25.06 15.47 24.9736L15.1056 24.0424C14.4983 24.28 14.1038 24.8619 14.1038 25.516H15.1038ZM15.4633 24.9762L15.7513 24.8682L15.4002 23.9318L15.1122 24.0398L15.4633 24.9762ZM15.5758 23.9H12.6418V24.9H15.5758V23.9ZM12.4662 24.8682L12.7542 24.9762L13.1053 24.0398L12.8173 23.9318L12.4662 24.8682ZM12.7476 24.9736C12.9683 25.06 13.1138 25.2701 13.1138 25.516H14.1138C14.1138 24.8619 13.7192 24.28 13.112 24.0424L12.7476 24.9736ZM13.1138 25.516V32.788H14.1138V25.516H13.1138ZM13.1138 32.788C13.1138 35.3861 15.2276 37.5 17.8258 37.5V36.5C15.7799 36.5 14.1138 34.8339 14.1138 32.788H13.1138ZM17.8258 37.5H18.5638V36.5H17.8258V37.5ZM18.5638 37.5C21.1619 37.5 23.2758 35.3861 23.2758 32.788H22.2758C22.2758 34.8339 20.6096 36.5 18.5638 36.5V37.5ZM23.2758 32.788V25.516H22.2758V32.788H23.2758ZM23.2758 25.516C23.2758 25.3069 23.4057 25.0978 23.6207 24.9954L23.1908 24.0926C22.6499 24.3502 22.2758 24.8971 22.2758 25.516H23.2758ZM23.6187 24.9964L23.9247 24.8524L23.4989 23.9476L23.1929 24.0916L23.6187 24.9964ZM23.7118 23.9H21.3358V24.9H23.7118V23.9ZM27.453 24.904V24.404H26.953V24.904H27.453ZM30.891 36.46V35.96H30.391V36.46H30.891ZM30.891 36.478V36.978H31.391V36.478H30.891ZM27.453 36.478H26.953V36.978H27.453V36.478ZM25.815 24.508L25.9972 24.0423L25.9905 24.0398L25.815 24.508ZM25.815 36.874L25.9905 37.3422L25.9972 37.3396L25.815 36.874ZM25.527 36.982L25.3514 36.5138L25.527 37.482V36.982ZM30.891 24.382V23.882H30.391V24.382H30.891ZM30.891 24.4V24.9H31.391V24.4H30.891ZM25.527 24.4V23.9L25.3514 24.8682L25.527 24.4ZM27.453 25.404H30.891V24.404H27.453V25.404ZM30.891 25.404C32.5751 25.404 33.7475 25.9507 34.5076 26.8362C35.2781 27.7339 35.683 29.0473 35.683 30.682H36.683C36.683 28.8967 36.2418 27.3211 35.2663 26.1848C34.2804 25.0363 32.8068 24.404 30.891 24.404V25.404ZM35.683 30.682C35.683 32.3167 35.2781 33.6301 34.5076 34.5278C33.7475 35.4133 32.5751 35.96 30.891 35.96V36.96C32.8068 36.96 34.2804 36.3277 35.2663 35.1792C36.2418 34.0429 36.683 32.4673 36.683 30.682H35.683ZM30.391 36.46V36.478H31.391V36.46H30.391ZM30.891 35.978H27.453V36.978H30.891V35.978ZM27.953 36.478V24.904H26.953V36.478H27.953ZM25.6328 24.9736C25.8535 25.06 25.999 25.2701 25.999 25.516H26.999C26.999 24.8619 26.6044 24.28 25.9972 24.0424L25.6328 24.9736ZM25.999 25.516V35.866H26.999V25.516H25.999ZM25.999 35.866C25.999 36.1119 25.8535 36.322 25.6328 36.4084L25.9972 37.3396C26.6044 37.102 26.999 36.5201 26.999 35.866H25.999ZM25.6394 36.4058L25.3514 36.5138L25.7025 37.4502L25.9905 37.3422L25.6394 36.4058ZM25.527 37.482H30.891V36.482H25.527V37.482ZM30.891 37.482C33.1802 37.482 34.8891 36.7495 36.0197 35.4888C37.142 34.2374 37.637 32.5297 37.637 30.682H36.637C36.637 32.3623 36.1869 33.8046 35.2752 34.8212C34.3718 35.8285 32.9577 36.482 30.891 36.482V37.482ZM37.637 30.682C37.637 28.7918 37.1432 27.0817 36.018 25.8396C34.8851 24.5888 33.1752 23.882 30.891 23.882V24.882C32.9627 24.882 34.3758 25.5162 35.2769 26.5109C36.1857 27.5143 36.637 28.9542 36.637 30.682H37.637ZM30.391 24.382V24.4H31.391V24.382H30.391ZM30.891 23.9H25.527V24.9H30.891V23.9ZM25.3514 24.8682L25.6394 24.9762L25.9905 24.0398L25.7025 23.9318L25.3514 24.8682ZM45.7395 31.438V31.938H46.501L46.1984 31.2393L45.7395 31.438ZM41.3115 31.438L40.8527 31.2393L40.5501 31.938H41.3115V31.438ZM43.5255 26.326L43.9844 26.1273L43.5255 25.0679L43.0667 26.1273L43.5255 26.326ZM49.8795 37V37.5L50.0377 36.5257L49.8795 37ZM49.6635 36.928L49.488 37.3962L49.4967 37.3994L49.5054 37.4023L49.6635 36.928ZM48.7275 35.992L49.1957 35.8164L49.1917 35.8056L49.1871 35.795L48.7275 35.992ZM43.7595 24.4L44.2191 24.203L43.7593 23.1301L43.2999 24.2032L43.7595 24.4ZM38.8275 35.92L38.3679 35.7232L38.3624 35.736L38.3577 35.7491L38.8275 35.92ZM38.0175 36.82L37.8026 36.3686L37.8018 36.3689L38.0175 36.82ZM37.6035 37.018L37.3878 36.5669L37.6035 37.518V37.018ZM39.9795 37.018V37.518L40.1953 36.5669L39.9795 37.018ZM39.5655 36.82L39.3419 37.2673L39.3498 37.2711L39.5655 36.82ZM39.2955 36.118L38.8362 35.92L38.8313 35.9323L39.2955 36.118ZM41.0955 31.942V31.442H40.7666L40.6364 31.7441L41.0955 31.942ZM45.9555 31.942L46.4147 31.7441L46.2845 31.442H45.9555V31.942ZM47.7555 36.118L48.2237 35.9424L48.2195 35.9312L48.2147 35.9201L47.7555 36.118ZM47.4315 36.82L47.6052 37.2889L47.6071 37.2882L47.4315 36.82ZM46.9455 37L46.7719 36.5311L46.9455 37.5V37ZM45.7395 30.938H41.3115V31.938H45.7395V30.938ZM41.7704 31.6367L43.9844 26.5247L43.0667 26.1273L40.8527 31.2393L41.7704 31.6367ZM43.0667 26.5247L45.2807 31.6367L46.1984 31.2393L43.9844 26.1273L43.0667 26.5247ZM50.0377 36.5257L49.8217 36.4537L49.5054 37.4023L49.7214 37.4743L50.0377 36.5257ZM49.8391 36.4598C49.5423 36.3485 49.307 36.1132 49.1957 35.8164L48.2594 36.1676C48.4721 36.7348 48.9208 37.1835 49.488 37.3962L49.8391 36.4598ZM49.1871 35.795L44.2191 24.203L43.3 24.597L48.268 36.189L49.1871 35.795ZM43.2999 24.2032L38.3679 35.7232L39.2872 36.1168L44.2192 24.5968L43.2999 24.2032ZM38.3577 35.7491C38.2569 36.0261 38.0579 36.247 37.8026 36.3686L38.2325 37.2714C38.7331 37.033 39.1102 36.6059 39.2974 36.0909L38.3577 35.7491ZM37.8018 36.3689L37.3878 36.5669L37.8193 37.4691L38.2333 37.2711L37.8018 36.3689ZM37.6035 37.518H39.9795V36.518H37.6035V37.518ZM40.1953 36.5669L39.7813 36.3689L39.3498 37.2711L39.7638 37.4691L40.1953 36.5669ZM39.7892 36.3728C39.7786 36.3675 39.7673 36.3565 39.7609 36.3402C39.755 36.325 39.756 36.3131 39.7598 36.3037L38.8313 35.9323C38.623 36.453 38.8663 37.0294 39.3419 37.2672L39.7892 36.3728ZM39.7547 36.3159L41.5547 32.1399L40.6364 31.7441L38.8364 35.9201L39.7547 36.3159ZM41.0955 32.442H45.9555V31.442H41.0955V32.442ZM45.4964 32.1399L47.2964 36.3159L48.2147 35.9201L46.4147 31.7441L45.4964 32.1399ZM47.2874 36.2936C47.2911 36.3035 47.2915 36.3102 47.2914 36.3142C47.2912 36.3184 47.2903 36.3223 47.2885 36.3259C47.2856 36.3322 47.2779 36.3436 47.256 36.3518L47.6071 37.2882C48.1465 37.0859 48.4313 36.4961 48.2237 35.9424L47.2874 36.2936ZM47.2579 36.3511L46.7719 36.5311L47.1192 37.4689L47.6052 37.2889L47.2579 36.3511ZM46.9455 37.5H49.8795V36.5H46.9455V37.5ZM58.1127 24.4L58.1164 23.9L57.8998 24.8524L58.1127 24.4ZM58.7247 24.688L58.9484 24.2407L58.9376 24.2356L58.7247 24.688ZM58.8327 25.084L59.25 25.3597L59.2567 25.349L58.8327 25.084ZM54.8007 31.186L54.3836 31.4617L54.8007 32.0929L55.2179 31.4616L54.8007 31.186ZM50.7327 25.03L50.3086 25.2951L50.3156 25.3057L50.7327 25.03ZM50.8767 24.634L51.0348 25.1083L51.0451 25.1049L51.0553 25.101L50.8767 24.634ZM51.4887 24.4L51.6673 24.867L51.4887 23.9V24.4ZM48.5547 24.4V23.9L48.3838 24.8699L48.5547 24.4ZM48.7527 24.472L48.9283 24.0038L48.9236 24.0021L48.7527 24.472ZM49.7967 25.3L50.2133 25.0235L50.2127 25.0226L49.7967 25.3ZM54.0987 31.78H54.5987V31.6291L54.5153 31.5035L54.0987 31.78ZM53.4147 36.892L53.5903 37.3602L53.5969 37.3576L53.4147 36.892ZM53.1267 37L52.9512 36.5318L53.1267 37.5V37ZM56.0607 37V37.5L56.2363 36.5318L56.0607 37ZM55.7727 36.892L55.5905 37.3577L55.5972 37.3602L55.7727 36.892ZM55.0887 31.816L54.6718 31.54L54.5887 31.6655V31.816H55.0887ZM59.3907 25.318L59.8077 25.5941L59.8135 25.585L59.3907 25.318ZM60.2727 24.544L60.0723 24.0859L60.0675 24.088L60.2727 24.544ZM60.5607 24.418L60.7611 24.8761L60.5644 23.918L60.5607 24.418ZM57.8998 24.8524L58.5118 25.1404L58.9376 24.2356L58.3256 23.9476L57.8998 24.8524ZM58.5011 25.1352C58.3813 25.0753 58.3425 24.925 58.4087 24.819L59.2567 25.349C59.5029 24.955 59.3562 24.4447 58.9483 24.2408L58.5011 25.1352ZM58.4156 24.8084L54.3836 30.9104L55.2179 31.4616L59.2499 25.3596L58.4156 24.8084ZM55.2179 30.9103L51.1499 24.7543L50.3156 25.3057L54.3836 31.4617L55.2179 30.9103ZM51.1567 24.765C51.201 24.8358 51.2005 24.913 51.1801 24.9691C51.1597 25.0252 51.1114 25.0828 51.0348 25.1083L50.7186 24.1597C50.2532 24.3148 50.0452 24.8733 50.3087 25.295L51.1567 24.765ZM51.0553 25.101L51.6673 24.867L51.3102 23.933L50.6982 24.167L51.0553 25.101ZM51.4887 23.9H48.5547V24.9H51.4887V23.9ZM48.3838 24.8699L48.5818 24.9419L48.9236 24.0021L48.7256 23.9301L48.3838 24.8699ZM48.5772 24.9402C48.9104 25.0651 49.1865 25.2861 49.3807 25.5773L50.2127 25.0226C49.9029 24.5579 49.459 24.2029 48.9283 24.0038L48.5772 24.9402ZM49.3802 25.5765L53.6822 32.0565L54.5153 31.5035L50.2133 25.0235L49.3802 25.5765ZM53.5987 31.78V35.884H54.5987V31.78H53.5987ZM53.5987 35.884C53.5987 36.1299 53.4533 36.34 53.2325 36.4264L53.5969 37.3576C54.2042 37.12 54.5987 36.5381 54.5987 35.884H53.5987ZM53.2392 36.4238L52.9512 36.5318L53.3023 37.4682L53.5903 37.3602L53.2392 36.4238ZM53.1267 37.5H56.0607V36.5H53.1267V37.5ZM56.2363 36.5318L55.9483 36.4238L55.5972 37.3602L55.8852 37.4682L56.2363 36.5318ZM55.9549 36.4264C55.7341 36.34 55.5887 36.1299 55.5887 35.884H54.5887C54.5887 36.5381 54.9833 37.12 55.5905 37.3576L55.9549 36.4264ZM55.5887 35.884V31.816H54.5887V35.884H55.5887ZM55.5056 32.092L59.8076 25.594L58.9738 25.042L54.6718 31.54L55.5056 32.092ZM59.8135 25.585C59.9792 25.3225 60.211 25.12 60.4779 25L60.0675 24.088C59.6144 24.292 59.2342 24.6295 58.968 25.051L59.8135 25.585ZM60.4731 25.0021L60.7611 24.8761L60.3603 23.9599L60.0723 24.0859L60.4731 25.0021ZM60.5644 23.918L58.1164 23.9L58.109 24.9L60.557 24.918L60.5644 23.918ZM67.7298 31.438V31.938H68.4912L68.1886 31.2393L67.7298 31.438ZM63.3018 31.438L62.843 31.2393L62.5404 31.938H63.3018V31.438ZM65.5158 26.326L65.9746 26.1273L65.5158 25.0679L65.057 26.1273L65.5158 26.326ZM71.8698 37V37.5L72.0279 36.5257L71.8698 37ZM71.6538 36.928L71.4782 37.3962L71.4869 37.3994L71.4957 37.4023L71.6538 36.928ZM70.7178 35.992L71.1859 35.8164L71.1819 35.8056L71.1774 35.795L70.7178 35.992ZM65.7498 24.4L66.2094 24.203L65.7495 23.1301L65.2901 24.2032L65.7498 24.4ZM60.8178 35.92L60.3581 35.7232L60.3526 35.736L60.3479 35.7491L60.8178 35.92ZM60.0078 36.82L59.7928 36.3686L59.7921 36.3689L60.0078 36.82ZM59.5938 37.018L59.3781 36.5669L59.5938 37.518V37.018ZM61.9698 37.018V37.518L62.1855 36.5669L61.9698 37.018ZM61.5558 36.82L61.3321 37.2673L61.3401 37.2711L61.5558 36.82ZM61.2858 36.118L60.8265 35.92L60.8215 35.9323L61.2858 36.118ZM63.0858 31.942V31.442H62.7568L62.6266 31.7441L63.0858 31.942ZM67.9458 31.942L68.4049 31.7441L68.2747 31.442H67.9458V31.942ZM69.7458 36.118L70.2139 35.9424L70.2097 35.9312L70.2049 35.9201L69.7458 36.118ZM69.4218 36.82L69.5954 37.2889L69.5973 37.2882L69.4218 36.82ZM68.9358 37L68.7621 36.5311L68.9358 37.5V37ZM67.7298 30.938H63.3018V31.938H67.7298V30.938ZM63.7606 31.6367L65.9746 26.5247L65.057 26.1273L62.843 31.2393L63.7606 31.6367ZM65.057 26.5247L67.271 31.6367L68.1886 31.2393L65.9746 26.1273L65.057 26.5247ZM72.0279 36.5257L71.8119 36.4537L71.4957 37.4023L71.7117 37.4743L72.0279 36.5257ZM71.8293 36.4598C71.5326 36.3485 71.2972 36.1132 71.1859 35.8164L70.2496 36.1676C70.4623 36.7348 70.911 37.1835 71.4782 37.3962L71.8293 36.4598ZM71.1774 35.795L66.2094 24.203L65.2902 24.597L70.2582 36.189L71.1774 35.795ZM65.2901 24.2032L60.3581 35.7232L61.2774 36.1168L66.2094 24.5968L65.2901 24.2032ZM60.3479 35.7491C60.2472 36.0261 60.0482 36.247 59.7928 36.3686L60.2227 37.2714C60.7234 37.033 61.1004 36.6059 61.2877 36.0909L60.3479 35.7491ZM59.7921 36.3689L59.3781 36.5669L59.8095 37.4691L60.2235 37.2711L59.7921 36.3689ZM59.5938 37.518H61.9698V36.518H59.5938V37.518ZM62.1855 36.5669L61.7715 36.3689L61.3401 37.2711L61.7541 37.4691L62.1855 36.5669ZM61.7794 36.3728C61.7689 36.3675 61.7576 36.3565 61.7512 36.3402C61.7452 36.325 61.7463 36.3131 61.75 36.3037L60.8215 35.9323C60.6133 36.453 60.8566 37.0294 61.3322 37.2672L61.7794 36.3728ZM61.7449 36.3159L63.5449 32.1399L62.6266 31.7441L60.8266 35.9201L61.7449 36.3159ZM63.0858 32.442H67.9458V31.442H63.0858V32.442ZM67.4866 32.1399L69.2866 36.3159L70.2049 35.9201L68.4049 31.7441L67.4866 32.1399ZM69.2776 36.2936C69.2813 36.3035 69.2818 36.3102 69.2816 36.3142C69.2814 36.3184 69.2805 36.3223 69.2788 36.3259C69.2759 36.3322 69.2681 36.3436 69.2462 36.3518L69.5973 37.2882C70.1368 37.0859 70.4216 36.4961 70.2139 35.9424L69.2776 36.2936ZM69.2481 36.3511L68.7621 36.5311L69.1094 37.4689L69.5954 37.2889L69.2481 36.3511ZM68.9358 37.5H71.8698V36.5H68.9358V37.5Z" fill="#E6B31E"/>
</svg>
