<svg width="13" height="13" viewBox="0 0 13 13" fill="none" xmlns="http://www.w3.org/2000/svg">
<path fill-rule="evenodd" clip-rule="evenodd" d="M1.9146 0C1.5471 0 1.19465 0.152182 0.934785 0.423068C0.674921 0.693954 0.528931 1.06135 0.528931 1.44444V11.5556C0.528931 11.9386 0.674921 12.306 0.934785 12.5769C1.19465 12.8478 1.5471 13 1.9146 13H11.6143C11.9818 13 12.3343 12.8478 12.5941 12.5769C12.854 12.306 13 11.9386 13 11.5556V1.44444C13 1.06135 12.854 0.693954 12.5941 0.423068C12.3343 0.152182 11.9818 0 11.6143 0H1.9146ZM8.55476 2.16667H7.13305L7.14622 8.03689C7.14645 8.30016 7.06689 8.55678 6.91891 8.77012C6.77092 8.98346 6.56207 9.14263 6.32216 9.2249C6.08225 9.30716 5.82354 9.30833 5.58295 9.22824C5.34237 9.14814 5.1322 8.99087 4.98244 8.77888C4.83269 8.56688 4.751 8.31099 4.74904 8.04773C4.74708 7.78447 4.82494 7.52729 4.97151 7.31289C5.11809 7.09849 5.32589 6.93784 5.56525 6.85385C5.80462 6.76987 6.06331 6.76685 6.30442 6.84522V5.34011H5.93514C5.41382 5.33997 4.90416 5.50099 4.47064 5.80282C4.03712 6.10465 3.69921 6.53371 3.49965 7.03575C3.30008 7.53779 3.24783 8.09025 3.3495 8.62325C3.45117 9.15624 3.7022 9.64584 4.07083 10.0301C4.43946 10.4144 4.90913 10.676 5.42044 10.782C5.93176 10.888 6.46174 10.8335 6.94335 10.6255C7.42496 10.4175 7.83657 10.0652 8.12612 9.61333C8.41566 9.16142 8.57013 8.63015 8.57 8.08672L8.55476 5.04833C9.43327 5.74744 10.5293 5.67594 10.5293 5.67594V4.20333C8.47577 4.07044 8.55476 2.16667 8.55476 2.16667Z" fill="#8B8B8B"/>
</svg>
