<svg width="17" height="13" viewBox="0 0 17 13" fill="none" xmlns="http://www.w3.org/2000/svg">
<path d="M16.968 1.53801C16.3745 1.7991 15.737 1.9756 15.0668 2.05493C15.7508 1.64886 16.2748 1.00538 16.5223 0.239527C15.8725 0.622125 15.1613 0.891474 14.4197 1.03587C13.8162 0.398152 12.9556 0 12.0035 0C10.176 0 8.69386 1.46871 8.69386 3.28149C8.69386 3.53834 8.72304 3.78892 8.77914 4.02951C6.02803 3.89244 3.58899 2.58604 1.95642 0.600955C1.67135 1.08577 1.50818 1.64945 1.50818 2.25087C1.50818 3.3892 2.09263 4.39356 2.9807 4.9819C2.45498 4.96575 1.94079 4.82507 1.48113 4.57163V4.6131C1.48113 6.20317 2.62197 7.52901 4.13636 7.83055C3.85817 7.90611 3.56622 7.94559 3.26419 7.94559C3.05064 7.94559 2.84346 7.92555 2.64107 7.88781C3.06231 9.19108 4.28479 10.1397 5.73288 10.1666C4.59999 11.0469 3.1725 11.5717 1.62208 11.5717C1.35504 11.5717 1.09112 11.5559 0.832031 11.525C2.29716 12.4563 4.03677 13 5.90617 13C11.9945 13 15.3243 7.99972 15.3243 3.66342C15.3243 3.52106 15.3211 3.37976 15.3142 3.23897C15.9629 2.77379 16.5229 2.19781 16.968 1.53801Z" fill="#8B8B8B"/>
</svg>
